<svg width="15" height="15" viewBox="0 0 15 15" fill="none" xmlns="http://www.w3.org/2000/svg">
<path d="M6.40372 8.59156C7.20058 9.41703 8.16476 10.0543 9.22854 10.4587L10.6677 9.28932C10.7103 9.25931 10.7609 9.24325 10.8127 9.24325C10.8645 9.24325 10.9151 9.25931 10.9578 9.28932L13.6299 11.0473C13.7314 11.1096 13.8172 11.1951 13.8808 11.2971C13.9443 11.3991 13.9837 11.5148 13.9959 11.635C14.0081 11.7553 13.9928 11.8767 13.9512 11.9899C13.9095 12.103 13.8427 12.2047 13.7559 12.2869L12.5038 13.5499C12.3245 13.7308 12.1041 13.8636 11.8623 13.9364C11.6205 14.0092 11.3649 14.0197 11.1181 13.967C8.65679 13.4479 6.38812 12.2322 4.57141 10.4587C2.79501 8.66767 1.56575 6.3887 1.03275 3.89829C0.980093 3.65023 0.991083 3.39249 1.06465 3.15004C1.13822 2.9076 1.27187 2.68867 1.45265 2.51447L2.75054 1.23591C2.83086 1.15163 2.92881 1.08699 3.03705 1.04684C3.1453 1.00669 3.26103 0.99207 3.3756 1.00407C3.49016 1.01607 3.60058 1.05438 3.69859 1.11613C3.7966 1.17788 3.87966 1.26147 3.94155 1.36064L5.72042 4.05421C5.75111 4.09651 5.76767 4.14775 5.76767 4.20039C5.76767 4.25303 5.75111 4.30427 5.72042 4.34657L4.5485 5.78495C4.95527 6.84949 5.589 7.80822 6.40372 8.59156Z" fill="#0066B2"/>
</svg>
